# xmcd
#
# Track frame offsets: 
#        150
#        15013
#        29040
#        40736
#        61210
#        86133
#        102907
#        123586
#        139980
#        157973
#        172823
#        196463
#
# Disc length: 2840 seconds
#
# Revision: 0
# Processed by: cddbd v1.5.2PL0 Copyright (c) Steve Scherf et al.
# Submitted via: ExactAudioCopy v0.95a5
#
DISCID=970b160c
DTITLE=Faithful Heart - Between the Two
DYEAR=1900
DGENRE=Country
TTITLE0=Who Is The One
TTITLE1=A Little Like Him
TTITLE2=What Cowboys Do
TTITLE3=Between The Two
TTITLE4=Last Ride
TTITLE5=Hold On And Pray
TTITLE6=Best Of The Years
TTITLE7=Dyin' To Live Again
TTITLE8=Fill Their Shoes
TTITLE9=There's A Train
TTITLE10=Any Time Of Year
TTITLE11=Standing True
EXTD=
EXTT0=
EXTT1=
EXTT2=
EXTT3=
EXTT4=
EXTT5=
EXTT6=
EXTT7=
EXTT8=
EXTT9=
EXTT10=
EXTT11=
PLAYORDER=
